<svg width="122" height="44" viewBox="0 0 122 44" fill="none" xmlns="http://www.w3.org/2000/svg">
<g clip-path="url(#clip0_521_117)">
<path d="M27.9122 16.0206C23.1953 15.9467 18.6084 19.8778 18.6359 25.1175C18.6621 30.097 22.8474 34.1822 27.9435 34.1456C32.9987 34.1096 37.1501 30.1304 37.1398 25.0487C37.1296 19.8532 32.723 16.0206 27.9115 16.0206H27.9122ZM27.884 30.5485C24.7587 30.7575 22.4412 27.8197 22.28 25.6499C22.0171 22.1254 24.7695 19.588 27.8341 19.5829C30.9614 19.5779 33.4957 21.9486 33.4426 25.0171C33.3876 28.2144 31.1124 30.5378 27.884 30.5485Z" fill="#044EFC"/>
<path d="M56.634 16.4463C56.65 16.1602 56.5138 16.0807 56.2362 16.0844C55.2927 16.0977 54.3492 16.1028 53.4057 16.0832C53.0577 16.0756 52.9656 16.1994 52.9688 16.5259C52.9829 18.0522 52.9752 19.5786 52.9752 21.1056C52.9752 22.5177 52.9618 23.9297 52.979 25.3418C52.9925 26.4179 52.6477 27.3797 52.0132 28.2246C50.7735 29.8754 49.1264 30.6036 46.9982 30.5739C44.5669 30.5398 41.9155 28.1116 41.8976 26.0156C41.8938 25.5736 41.8528 25.1277 41.8522 24.6831C41.8503 22.0623 41.856 19.4422 41.8522 16.8214C41.8509 16.0011 41.8995 16.0958 41.1294 16.0914C40.2761 16.087 39.4228 16.1103 38.5708 16.0819C38.1691 16.0687 38.0718 16.2063 38.0738 16.5833C38.0878 19.3437 38.0635 22.104 38.0885 24.8644C38.1032 26.5183 38.5183 28.0857 39.3627 29.5262C40.4686 31.4138 42.0639 32.7785 44.1166 33.5584C46.1577 34.3339 48.2596 34.3907 50.3392 33.6588C53.8918 32.4078 56.5304 29.3412 56.6417 25.1088C56.7146 22.3377 56.6571 19.5628 56.6571 16.7898C56.6571 16.6755 56.6283 16.5612 56.6347 16.4476L56.634 16.4463Z" fill="#044EFC"/>
<path d="M102.051 25.1616C102.051 24.9456 102.054 24.7271 102.026 24.5137C101.721 22.2036 100.792 20.2055 99.0355 18.597C96.3559 16.143 92.4502 15.1989 88.7651 17.0334C85.4146 18.7012 83.6261 21.4691 83.4963 25.1584C83.3959 28.0173 83.4771 30.8825 83.4681 33.7451C83.4669 34.0577 83.5756 34.1708 83.8961 34.1651C84.8133 34.1499 85.7312 34.1607 86.6492 34.1594C87.1551 34.1588 87.1577 34.1569 87.1577 33.6466C87.1583 30.7587 87.1897 27.8702 87.1487 24.9829C87.1116 22.3438 89.534 19.9971 91.6903 19.7862C92.4291 19.7142 93.1545 19.7262 93.8901 19.8032C95.9651 20.0217 98.3581 22.3223 98.2832 24.724C98.2384 26.1727 98.2749 27.6245 98.2749 29.0745H98.2807C98.2807 30.6141 98.2903 32.1531 98.2736 33.6927C98.2698 34.0628 98.3964 34.1752 98.7649 34.167C99.6949 34.1455 100.626 34.1423 101.556 34.1682C101.949 34.179 102.062 34.0577 102.06 33.6725C102.044 30.8357 102.052 27.9984 102.05 25.1616H102.051Z" fill="#044EFC"/>
<path d="M76.803 30.6032C76.4013 30.5994 76.0015 30.5583 75.6158 30.4472C73.32 29.7854 71.5041 27.6351 71.5386 25.1867C71.5738 22.6676 71.5463 20.1485 71.5463 17.6287H71.5476C71.5476 14.9315 71.5488 12.2337 71.5463 9.53653C71.5463 9.04964 71.5021 9.00796 71.0205 9.00606C70.1416 9.00228 69.2621 9.00796 68.3832 9.00101C68.0294 8.99849 67.8894 9.12984 67.8906 9.50243C67.9009 14.528 67.8926 19.5542 67.8983 24.5798C67.8996 25.4052 67.8958 26.2419 68.0934 27.0465C68.8898 30.2874 71.6678 33.3585 75.4929 34.0007C75.9509 34.0777 76.4051 34.1794 76.8752 34.1605C77.0345 34.1542 77.1567 34.1283 77.1516 33.9312C77.126 32.9518 77.2526 31.9754 77.2066 30.9947C77.1938 30.7194 77.0735 30.6057 76.803 30.6032Z" fill="#044EFC"/>
<path d="M66.9656 16.5445C66.9893 16.2029 66.8556 16.0678 66.4935 16.0867C65.2475 16.1517 64.052 16.4517 62.9601 17.0119C59.5257 18.7732 57.695 21.5569 57.6324 25.4034C57.6113 26.7005 57.6292 27.9983 57.6292 29.296C57.6298 30.7845 57.6349 32.273 57.6253 33.7608C57.6234 34.0494 57.711 34.1701 58.0238 34.165C58.9673 34.1498 59.9108 34.1511 60.8543 34.1644C61.1671 34.1688 61.311 34.0633 61.2957 33.7476C61.2746 33.3289 61.2579 32.9096 61.2567 32.4909C61.2509 30.0229 61.233 27.555 61.2567 25.0876C61.2669 24.0545 61.5509 23.07 62.1496 22.2079C63.2031 20.6904 64.6296 19.7855 66.5396 19.7299C66.8517 19.721 66.9854 19.5992 66.9669 19.2885C66.9125 18.3747 66.9016 17.4596 66.9656 16.5458V16.5445Z" fill="#044EFC"/>
<path d="M81.9949 16.0815C81.1429 16.1061 80.2903 16.0891 79.4376 16.0891C78.8159 16.0891 78.8127 16.0897 78.812 16.6915C78.8107 19.5011 78.812 22.3113 78.812 25.1209H78.8133C78.8133 27.9817 78.8184 30.8424 78.8069 33.7032C78.8056 34.0467 78.9022 34.1749 79.2649 34.1661C80.1687 34.1453 81.0732 34.149 81.9777 34.1648C82.3052 34.1705 82.4158 34.0745 82.4376 33.7354C82.5348 32.2229 82.4913 30.7105 82.4932 29.198C82.4996 24.9896 82.492 20.7812 82.5054 16.5728C82.5067 16.1825 82.3813 16.0695 81.9956 16.0808L81.9949 16.0815Z" fill="#044EFC"/>
<path d="M121.436 20.8207C121.436 19.2552 121.431 17.881 121.436 16.5069C121.436 16.2675 121.405 16.085 121.083 16.0894C120.101 16.0983 119.119 16.0939 118.136 16.0894C117.903 16.085 117.814 16.1848 117.823 16.4115C117.832 16.781 117.815 17.1466 117.828 17.516C117.841 17.8034 117.758 17.8248 117.529 17.6726C117.295 17.516 117.048 17.3771 116.797 17.242C115.529 16.5416 114.177 16.0939 112.718 16.0288C110.604 15.9417 108.697 16.5422 106.957 17.7162C103.649 19.9385 102.209 24.1917 103.477 27.8924C104.129 29.7926 105.433 31.4712 107.151 32.6111L107.913 28.5321C107.133 27.6013 106.631 26.3926 106.661 24.966C106.723 22.248 109.053 19.6171 112.26 19.6171C115.762 19.6171 118.03 22.6136 117.823 25.0967C118.035 27.7579 115.55 30.6502 112.167 30.6237C111.612 30.6193 111.039 30.5062 110.48 30.3105L107.155 32.6111C108.56 33.5419 110.242 34.116 112.079 34.1507C114.057 34.1854 115.881 33.6417 117.52 32.5283C117.594 32.4759 117.674 32.3458 117.779 32.4286C117.828 32.4633 117.819 32.5896 117.819 32.6768C117.823 33.7206 117.801 34.7639 117.828 35.8034C117.863 37.1864 117.458 38.4084 116.559 39.4693C116.37 39.691 116.26 39.9391 116.26 40.2347C116.251 41.3569 116.234 42.474 116.229 43.5918C116.225 44.0484 116.287 44.092 116.678 43.8747C119.639 42.2094 121.237 39.6739 121.409 36.3471C121.498 34.6117 121.507 32.8637 121.519 31.1245C121.55 27.624 121.409 24.1273 121.436 20.822V20.8207Z" fill="#044EFC"/>
<path d="M21.8725 13.3719C21.8713 13.0979 21.7593 12.9236 21.499 12.8251C20.292 12.3659 19.0862 11.903 17.8811 11.4376C16.2321 10.8004 14.5856 10.1575 12.9346 9.5254C12.7274 9.44583 12.6596 9.31511 12.6557 9.11492C12.6346 7.83737 12.5873 6.56108 12.5112 5.28543C12.4351 4.00788 12.2931 2.7398 11.9489 1.50077C11.8197 1.03472 11.6169 0.605919 11.3189 0.257955C10.9344 -0.105796 10.4604 -0.0780094 10.1483 0.307213C10.0875 0.382363 10.0395 0.468249 9.99157 0.55224C9.6372 1.16923 9.47856 1.84684 9.37622 2.53961C9.06599 4.63497 9.01737 6.74169 9.08326 8.8541C9.09925 9.37068 9.01289 9.50204 8.52612 9.70728C6.51951 10.5541 4.51163 11.3991 2.50503 12.2453C1.76623 12.5567 1.02743 12.8699 0.288623 13.1825C0.133186 13.2482 -0.00497945 13.3265 0.000137795 13.5279C0.0161292 14.2049 0.0244447 14.8825 0.0449137 15.5601C0.0513103 15.7679 0.12615 15.8159 0.337876 15.7812C0.763248 15.7111 1.18862 15.6403 1.61271 15.5646C4.05684 15.1313 6.50096 14.6962 8.94509 14.2624C8.97515 14.2573 8.9937 14.258 9.01993 14.2548V34.1658H12.7747V14.2106C12.8252 14.21 12.8905 14.2175 12.9736 14.2289C14.6035 14.46 16.234 14.6899 17.8638 14.9223C19.099 15.0985 20.3335 15.2797 21.5693 15.4534C21.8476 15.4926 21.9096 15.4288 21.9045 15.1522C21.8937 14.5586 21.8757 13.9649 21.8732 13.3713L21.8725 13.3719Z" fill="#044EFC"/>
</g>
<defs>
<clipPath id="clip0_521_117">
<rect width="121.524" height="44" fill="white"/>
</clipPath>
</defs>
</svg>
