<svg width="20" height="20" viewBox="0 0 20 20" fill="none" xmlns="http://www.w3.org/2000/svg">
<g clip-path="url(#clip0_828_4288)">
<path d="M7.57435 7.49935C7.77027 6.94241 8.15698 6.47277 8.66598 6.17363C9.17498 5.87448 9.77343 5.76513 10.3553 5.86494C10.9372 5.96475 11.465 6.26729 11.8452 6.71896C12.2255 7.17063 12.4336 7.74228 12.4327 8.33268C12.4327 9.99935 9.93268 10.8327 9.93268 10.8327M9.99935 14.166H10.0077M18.3327 9.99935C18.3327 14.6017 14.6017 18.3327 9.99935 18.3327C5.39698 18.3327 1.66602 14.6017 1.66602 9.99935C1.66602 5.39698 5.39698 1.66602 9.99935 1.66602C14.6017 1.66602 18.3327 5.39698 18.3327 9.99935Z" stroke="#A4A7AE" stroke-width="1.66667" stroke-linecap="round" stroke-linejoin="round"/>
</g>
<defs>
<clipPath id="clip0_828_4288">
<rect width="20" height="20" fill="white"/>
</clipPath>
</defs>
</svg>
