<svg width="76" height="76" viewBox="0 0 76 76" fill="none" xmlns="http://www.w3.org/2000/svg">
<rect width="76" height="76" rx="38" fill="#DD2590"/>
<path d="M41 23H29C28.2044 23 27.4413 23.3161 26.8787 23.8787C26.3161 24.4413 26 25.2044 26 26V50C26 50.7956 26.3161 51.5587 26.8787 52.1213C27.4413 52.6839 28.2044 53 29 53H47C47.7956 53 48.5587 52.6839 49.1213 52.1213C49.6839 51.5587 50 50.7956 50 50V32M41 23L50 32M41 23V32H50M44 39.5H32M44 45.5H32M35 33.5H32" stroke="white" stroke-width="3" stroke-linecap="round" stroke-linejoin="round"/>
</svg>
