<svg width="76" height="76" viewBox="0 0 76 76" fill="none" xmlns="http://www.w3.org/2000/svg">
<rect width="76" height="76" rx="38" fill="#044EFC"/>
<path d="M31.25 26.3149L38 30.2149L44.75 26.3149M31.25 49.6849V41.8999L24.5 37.9999M51.5 37.9999L44.75 41.8999V49.6849M24.905 30.4399L38 38.0149L51.095 30.4399M38 53.1199V37.9999M51.5 43.9999V31.9999C51.4995 31.4738 51.3606 30.9571 51.0973 30.5016C50.834 30.0461 50.4556 29.6679 50 29.4049L39.5 23.4049C39.0439 23.1415 38.5266 23.0029 38 23.0029C37.4734 23.0029 36.9561 23.1415 36.5 23.4049L26 29.4049C25.5444 29.6679 25.166 30.0461 24.9027 30.5016C24.6394 30.9571 24.5005 31.4738 24.5 31.9999V43.9999C24.5005 44.5259 24.6394 45.0426 24.9027 45.4981C25.166 45.9536 25.5444 46.3318 26 46.5949L36.5 52.5949C36.9561 52.8582 37.4734 52.9968 38 52.9968C38.5266 52.9968 39.0439 52.8582 39.5 52.5949L50 46.5949C50.4556 46.3318 50.834 45.9536 51.0973 45.4981C51.3606 45.0426 51.4995 44.5259 51.5 43.9999Z" stroke="white" stroke-width="3" stroke-linecap="round" stroke-linejoin="round"/>
</svg>
