<svg width="76" height="76" viewBox="0 0 76 76" fill="none" xmlns="http://www.w3.org/2000/svg">
<rect width="76" height="76" rx="38" fill="#FF6010"/>
<path d="M53 36.62V38C52.9982 41.2347 51.9508 44.3821 50.014 46.9728C48.0773 49.5635 45.3549 51.4588 42.253 52.3759C39.1511 53.293 35.8359 53.1829 32.8017 52.0619C29.7675 50.9409 27.177 48.8692 25.4164 46.1556C23.6559 43.4421 22.8197 40.2321 23.0325 37.0045C23.2453 33.7769 24.4958 30.7045 26.5974 28.2457C28.699 25.7868 31.5392 24.0731 34.6943 23.3603C37.8494 22.6474 41.1504 22.9735 44.105 24.29M53 26L38 41.015L33.5 36.515" stroke="white" stroke-width="3" stroke-linecap="round" stroke-linejoin="round"/>
</svg>
