<svg width="76" height="76" viewBox="0 0 76 76" fill="none" xmlns="http://www.w3.org/2000/svg">
<rect width="76" height="76" rx="38" fill="#12B76A"/>
<path d="M53.8099 29.63C53.6317 28.9181 53.2688 28.2659 52.7579 27.7391C52.2469 27.2124 51.606 26.8298 50.8999 26.63C48.3199 26 37.9999 26 37.9999 26C37.9999 26 27.6799 26 25.0999 26.69C24.3938 26.8898 23.7528 27.2724 23.2419 27.7991C22.731 28.3259 22.3681 28.9781 22.1899 29.69C21.7177 32.3083 21.4867 34.9645 21.4999 37.625C21.483 40.3056 21.714 42.982 22.1899 45.62C22.3863 46.3098 22.7573 46.9372 23.2671 47.4417C23.7769 47.9462 24.4081 48.3107 25.0999 48.5C27.6799 49.19 37.9999 49.19 37.9999 49.19C37.9999 49.19 48.3199 49.19 50.8999 48.5C51.606 48.3002 52.2469 47.9176 52.7579 47.3909C53.2688 46.8641 53.6317 46.2119 53.8099 45.5C54.2784 42.9014 54.5094 40.2655 54.4999 37.625C54.5167 34.9444 54.2857 32.268 53.8099 29.63Z" stroke="white" stroke-width="3" stroke-linecap="round" stroke-linejoin="round"/>
<path d="M34.6249 42.53L43.2499 37.625L34.6249 32.72V42.53Z" stroke="white" stroke-width="3" stroke-linecap="round" stroke-linejoin="round"/>
</svg>
