<svg width="76" height="78" viewBox="0 0 76 78" fill="none" xmlns="http://www.w3.org/2000/svg">
<g filter="url(#filter0_d_150_11188)">
<rect x="14" y="4" width="48" height="48" rx="24" fill="#FF6010" shape-rendering="crispEdges"/>
<rect x="14" y="4" width="48" height="48" rx="24" stroke="#FF6010" stroke-width="8" shape-rendering="crispEdges"/>
<g clip-path="url(#clip0_150_11188)">
<path d="M45.5 24H46.5C47.5609 24 48.5783 24.4214 49.3284 25.1716C50.0786 25.9217 50.5 26.9391 50.5 28C50.5 29.0609 50.0786 30.0783 49.3284 30.8284C48.5783 31.5786 47.5609 32 46.5 32H45.5M45.5 24H29.5V33C29.5 34.0609 29.9214 35.0783 30.6716 35.8284C31.4217 36.5786 32.4391 37 33.5 37H41.5C42.5609 37 43.5783 36.5786 44.3284 35.8284C45.0786 35.0783 45.5 34.0609 45.5 33V24ZM33.5 17V20M37.5 17V20M41.5 17V20" stroke="#FFEFE7" stroke-width="2" stroke-linecap="round" stroke-linejoin="round"/>
</g>
</g>
<defs>
<filter id="filter0_d_150_11188" x="0" y="0" width="76" height="78" filterUnits="userSpaceOnUse" color-interpolation-filters="sRGB">
<feFlood flood-opacity="0" result="BackgroundImageFix"/>
<feColorMatrix in="SourceAlpha" type="matrix" values="0 0 0 0 0 0 0 0 0 0 0 0 0 0 0 0 0 0 127 0" result="hardAlpha"/>
<feOffset dy="12"/>
<feGaussianBlur stdDeviation="5"/>
<feComposite in2="hardAlpha" operator="out"/>
<feColorMatrix type="matrix" values="0 0 0 0 1 0 0 0 0 0.376471 0 0 0 0 0.0627451 0 0 0 0.4 0"/>
<feBlend mode="normal" in2="BackgroundImageFix" result="effect1_dropShadow_150_11188"/>
<feBlend mode="normal" in="SourceGraphic" in2="effect1_dropShadow_150_11188" result="shape"/>
</filter>
<clipPath id="clip0_150_11188">
<rect width="24" height="24" fill="white" transform="translate(27.5 16)"/>
</clipPath>
</defs>
</svg>
