<svg width="76" height="78" viewBox="0 0 76 78" fill="none" xmlns="http://www.w3.org/2000/svg">
<g filter="url(#filter0_d_150_11198)">
<rect x="14" y="4" width="48" height="48" rx="24" fill="#039855" shape-rendering="crispEdges"/>
<rect x="14" y="4" width="48" height="48" rx="24" stroke="#039855" stroke-width="8" shape-rendering="crispEdges"/>
<path d="M39.5 18H31.5C30.9696 18 30.4609 18.2107 30.0858 18.5858C29.7107 18.9609 29.5 19.4696 29.5 20V36C29.5 36.5304 29.7107 37.0391 30.0858 37.4142C30.4609 37.7893 30.9696 38 31.5 38H43.5C44.0304 38 44.5391 37.7893 44.9142 37.4142C45.2893 37.0391 45.5 36.5304 45.5 36V24M39.5 18L45.5 24M39.5 18V24H45.5M41.5 29H33.5M41.5 33H33.5M35.5 25H33.5" stroke="#ECFDF3" stroke-width="2" stroke-linecap="round" stroke-linejoin="round"/>
</g>
<defs>
<filter id="filter0_d_150_11198" x="0" y="0" width="76" height="78" filterUnits="userSpaceOnUse" color-interpolation-filters="sRGB">
<feFlood flood-opacity="0" result="BackgroundImageFix"/>
<feColorMatrix in="SourceAlpha" type="matrix" values="0 0 0 0 0 0 0 0 0 0 0 0 0 0 0 0 0 0 127 0" result="hardAlpha"/>
<feOffset dy="12"/>
<feGaussianBlur stdDeviation="5"/>
<feComposite in2="hardAlpha" operator="out"/>
<feColorMatrix type="matrix" values="0 0 0 0 0.0117647 0 0 0 0 0.596078 0 0 0 0 0.333333 0 0 0 0.4 0"/>
<feBlend mode="normal" in2="BackgroundImageFix" result="effect1_dropShadow_150_11198"/>
<feBlend mode="normal" in="SourceGraphic" in2="effect1_dropShadow_150_11198" result="shape"/>
</filter>
</defs>
</svg>
