<svg width="77" height="78" viewBox="0 0 77 78" fill="none" xmlns="http://www.w3.org/2000/svg">
<g filter="url(#filter0_d_150_11194)">
<rect x="14.5" y="4" width="48" height="48" rx="24" fill="#6938EF" shape-rendering="crispEdges"/>
<rect x="14.5" y="4" width="48" height="48" rx="24" stroke="#6938EF" stroke-width="8" shape-rendering="crispEdges"/>
<path d="M48 27.0799V27.9999C47.9988 30.1563 47.3005 32.2545 46.0093 33.9817C44.7182 35.7088 42.9033 36.9723 40.8354 37.5838C38.7674 38.1952 36.5573 38.1218 34.5345 37.3744C32.5117 36.6271 30.7847 35.246 29.611 33.4369C28.4373 31.6279 27.8798 29.4879 28.0217 27.3362C28.1636 25.1844 28.9972 23.1362 30.3983 21.4969C31.7994 19.8577 33.6928 18.7152 35.7962 18.24C37.8996 17.7648 40.1003 17.9822 42.07 18.8599M48 19.9999L38 30.0099L35 27.0099" stroke="#F4F3FF" stroke-width="2" stroke-linecap="round" stroke-linejoin="round"/>
</g>
<defs>
<filter id="filter0_d_150_11194" x="0.5" y="0" width="76" height="78" filterUnits="userSpaceOnUse" color-interpolation-filters="sRGB">
<feFlood flood-opacity="0" result="BackgroundImageFix"/>
<feColorMatrix in="SourceAlpha" type="matrix" values="0 0 0 0 0 0 0 0 0 0 0 0 0 0 0 0 0 0 127 0" result="hardAlpha"/>
<feOffset dy="12"/>
<feGaussianBlur stdDeviation="5"/>
<feComposite in2="hardAlpha" operator="out"/>
<feColorMatrix type="matrix" values="0 0 0 0 0.411765 0 0 0 0 0.219608 0 0 0 0 0.937255 0 0 0 0.4 0"/>
<feBlend mode="normal" in2="BackgroundImageFix" result="effect1_dropShadow_150_11194"/>
<feBlend mode="normal" in="SourceGraphic" in2="effect1_dropShadow_150_11194" result="shape"/>
</filter>
</defs>
</svg>
