<svg width="97" height="130" viewBox="0 0 97 130" fill="none" xmlns="http://www.w3.org/2000/svg">
<path d="M48.1386 129.718C38.975 129.718 30.8136 128.143 23.6545 124.993C16.5364 121.802 10.9114 117.425 6.77955 111.861C2.68864 106.257 0.581819 99.7932 0.459092 92.4705H27.2136C27.3773 95.5386 28.3795 98.2386 30.2205 100.57C32.1023 102.861 34.5977 104.641 37.7068 105.909C40.8159 107.177 44.3136 107.811 48.2 107.811C52.25 107.811 55.8295 107.095 58.9386 105.664C62.0477 104.232 64.4818 102.248 66.2409 99.7114C68 97.175 68.8795 94.25 68.8795 90.9364C68.8795 87.5818 67.9386 84.6159 66.0568 82.0386C64.2159 79.4205 61.5568 77.375 58.0795 75.9023C54.6432 74.4295 50.5523 73.6932 45.8068 73.6932H34.0864V54.1795H45.8068C49.8159 54.1795 53.3545 53.4841 56.4227 52.0932C59.5318 50.7023 61.9455 48.7795 63.6636 46.325C65.3818 43.8295 66.2409 40.925 66.2409 37.6114C66.2409 34.4614 65.4841 31.7 63.9705 29.3273C62.4977 26.9136 60.4114 25.0318 57.7114 23.6818C55.0523 22.3318 51.9432 21.6568 48.3841 21.6568C44.7841 21.6568 41.4909 22.3114 38.5045 23.6204C35.5182 24.8886 33.125 26.7091 31.325 29.0818C29.525 31.4545 28.5636 34.2364 28.4409 37.4273H2.975C3.09773 30.1864 5.16364 23.8045 9.17273 18.2818C13.1818 12.7591 18.5818 8.44317 25.3727 5.33408C32.2045 2.18408 39.9159 0.609084 48.5068 0.609084C57.1795 0.609084 64.7682 2.18408 71.2727 5.33408C77.7773 8.48408 82.8295 12.7386 86.4295 18.0977C90.0705 23.4159 91.8705 29.3886 91.8296 36.0159C91.8705 43.0523 89.6818 48.9227 85.2636 53.6273C80.8864 58.3318 75.1795 61.3182 68.1432 62.5864V63.5682C77.3886 64.7545 84.425 67.9659 89.2523 73.2023C94.1205 78.3977 96.5341 84.9023 96.4932 92.7159C96.5341 99.875 94.4682 106.236 90.2955 111.8C86.1636 117.364 80.4568 121.741 73.175 124.932C65.8932 128.123 57.5477 129.718 48.1386 129.718Z" fill="url(#paint0_linear_150_9738)"/>
<defs>
<linearGradient id="paint0_linear_150_9738" x1="48.5" y1="-43" x2="48.5" y2="173" gradientUnits="userSpaceOnUse">
<stop stop-color="#68707E" stop-opacity="0.5"/>
<stop offset="0.73" stop-color="#A4A7AE" stop-opacity="0"/>
</linearGradient>
</defs>
</svg>
