<svg width="92" height="128" viewBox="0 0 92 128" fill="none" xmlns="http://www.w3.org/2000/svg">
<path d="M1.68636 128V108.855L46.4205 67.4341C50.225 63.7523 53.4159 60.4386 55.9932 57.4932C58.6114 54.5477 60.5955 51.6636 61.9455 48.8409C63.2955 45.9773 63.9705 42.8886 63.9705 39.575C63.9705 35.8932 63.1318 32.7227 61.4545 30.0636C59.7773 27.3636 57.4864 25.2977 54.5818 23.8659C51.6773 22.3932 48.3841 21.6568 44.7023 21.6568C40.8568 21.6568 37.5023 22.4341 34.6386 23.9886C31.775 25.5432 29.5659 27.7727 28.0114 30.6773C26.4568 33.5818 25.6795 37.0386 25.6795 41.0477H0.459092C0.459092 32.825 2.32046 25.6864 6.04318 19.6318C9.76591 13.5773 14.9818 8.89318 21.6909 5.57954C28.4 2.2659 36.1318 0.609084 44.8864 0.609084C53.8864 0.609084 61.7205 2.20454 68.3886 5.39545C75.0977 8.54545 80.3136 12.9227 84.0364 18.5273C87.7591 24.1318 89.6205 30.5545 89.6205 37.7955C89.6205 42.5409 88.6796 47.225 86.7977 51.8477C84.9568 56.4705 81.6636 61.6045 76.9182 67.25C72.1727 72.8545 65.4841 79.5841 56.8523 87.4386L38.5045 105.418V106.277H91.2773V128H1.68636Z" fill="url(#paint0_linear_150_9743)"/>
<defs>
<linearGradient id="paint0_linear_150_9743" x1="46" y1="-43" x2="46" y2="173" gradientUnits="userSpaceOnUse">
<stop stop-color="#68707E" stop-opacity="0.5"/>
<stop offset="0.73" stop-color="#A4A7AE" stop-opacity="0"/>
</linearGradient>
</defs>
</svg>
